<svg width="1583" height="1046" viewBox="0 0 1583 1046" fill="none" xmlns="http://www.w3.org/2000/svg">
<path d="M1582.78 865.54L1582.63 976.54C1582.63 993.66 1576.64 1010.08 1565.79 1022.73C1554.25 1036.18 1538.28 1044.24 1520.81 1045.47C1519.29 1045.58 1517.76 1045.64 1516.15 1045.64H37.9905C17.1159 1045.64 0.208984 1028.49 0.208984 1007.36V313.1C0.208984 306.72 1.06766 300.48 2.72578 294.5C1.06766 288.52 0.208984 282.33 0.208984 276.08C0.208984 250.31 14.609 226.57 37.7734 214.14L420.257 9.1401C430.966 3.4001 443.086 0.350098 455.295 0.350098H456.943C469.162 0.350098 481.292 3.3801 492.021 9.1301L874.505 214.15C897.679 226.57 912.089 250.31 912.089 276.09C912.089 288.98 908.447 301.63 901.578 312.67C888.5 333.7 864.655 346.75 839.348 346.75C827.12 346.75 814.99 343.72 804.261 337.96L456.144 151.37L306.074 231.81H551.644C581.5 231.81 605.237 239.76 622.193 255.46C639.88 271.82 649.227 293.95 649.227 319.43C649.227 335.9 645.407 350.93 638.034 363.92H798.142C825.166 363.92 846.8 371.19 862.414 385.54C878.857 400.66 887.562 421.06 887.562 444.54C887.562 468.02 878.67 488.71 861.852 503.73C846.188 517.72 824.751 524.83 798.142 524.83H725.856V631.6C733.268 628.4 741.48 626.71 750.145 626.71C768.079 626.71 784.078 633.85 795.201 646.81C805.308 658.6 810.42 673.94 810.42 692.42V695.1C816.145 694.22 822.057 693.78 828.067 693.78C845.715 693.78 861.931 697.8 876.262 705.74C887.76 712.11 897.442 720.68 905.15 731.33C906.542 729.63 907.983 727.97 909.464 726.35C921.031 713.78 935.283 704.07 951.844 697.52C967.498 691.31 984.76 688.17 1003.18 688.17C1027.83 688.17 1049.77 693.82 1068.41 704.95C1078.06 710.71 1086.58 717.48 1093.86 725.19C1095.66 720.93 1097.84 717 1100.41 713.39C1111.28 698.16 1128.06 689.77 1147.65 689.77C1158.32 689.77 1168.07 692.15 1176.45 696.68C1184.84 692.74 1195.64 689.77 1209.13 689.77C1220.63 689.77 1231.9 691.88 1242.78 696.04C1242.84 695.97 1242.9 695.89 1242.96 695.82C1254.34 682.82 1270.32 675.68 1287.97 675.68C1301.04 675.68 1313.02 679.44 1323.18 686.65C1337.73 679.61 1353.78 676.04 1370.92 676.04C1389.63 676.04 1406.46 680.15 1420.93 688.26C1422.84 689.35 1424.73 690.5 1426.56 691.71C1428.92 690.24 1431.32 688.87 1433.75 687.61C1448.51 679.93 1464.86 676.04 1482.33 676.04C1502.01 676.04 1519.7 680.28 1534.93 688.66C1551.61 697.84 1564.26 711.2 1572.53 728.37C1572.59 728.51 1572.66 728.66 1572.73 728.8C1579.48 743.27 1582.62 761.91 1582.62 787.45V860.97C1582.72 862.48 1582.77 864 1582.77 865.53L1582.78 865.54Z" fill="white"/>
<path d="M551.654 369.2H301.761V531.5H486.316C505.681 531.5 520.13 535.9 529.674 544.7C539.218 553.51 543.985 565.26 543.985 579.97C543.985 594.68 539.139 606.37 529.457 615.03C519.775 623.68 505.384 628.01 486.316 628.01H301.761V837.06C301.761 863.61 295.849 883.3 284.035 896.14C272.211 908.97 257.051 915.4 238.545 915.4C220.039 915.4 204.435 908.91 192.621 895.92C180.797 882.94 174.895 863.32 174.895 837.06V348.86C174.895 330.4 177.599 315.32 183.008 303.63C188.416 291.94 196.884 283.44 208.422 278.1C219.96 272.76 234.696 270.09 252.639 270.09H551.664C571.887 270.09 586.909 274.63 596.729 283.72C606.56 292.81 611.465 304.71 611.465 319.43C611.465 334.15 606.55 346.48 596.729 355.57C586.909 364.66 571.877 369.2 551.664 369.2H551.654Z" fill="#09539A"/>
<path d="M798.152 486.54H688.084V853.11C688.084 874.22 683.435 889.89 674.158 900.09C664.87 910.3 652.869 915.41 638.143 915.41C623.417 915.41 611.021 910.24 601.625 899.92C592.229 889.6 587.531 873.99 587.531 853.11V486.54H477.463C460.25 486.54 447.449 482.7 439.069 475.01C430.69 467.33 426.495 457.17 426.495 444.55C426.495 431.93 430.858 421.14 439.573 413.57C448.288 406 460.921 402.21 477.453 402.21H798.142C815.582 402.21 828.551 406.11 837.039 413.91C845.537 421.72 849.781 431.93 849.781 444.54C849.781 457.15 845.478 467.32 836.871 475C828.265 482.69 815.355 486.53 798.142 486.53L798.152 486.54Z" fill="#09539A"/>
<path d="M772.648 692.42V759.32C778.294 752.71 783.811 747.49 789.2 743.63C794.579 739.78 800.53 736.89 807.054 734.96C813.578 733.04 820.586 732.07 828.087 732.07C839.388 732.07 849.416 734.49 858.17 739.34C866.915 744.19 873.794 751.23 878.798 760.48C881.946 765.87 884.068 771.91 885.154 778.57C886.24 785.23 886.783 792.92 886.783 801.61V888C886.783 897.03 884.749 903.86 880.673 908.48C876.597 913.1 871.188 915.42 864.447 915.42C849.771 915.42 842.438 906.28 842.438 888V811.85C842.438 797.42 840.316 786.33 836.081 778.57C831.847 770.81 823.794 766.92 811.95 766.92C804.014 766.92 796.869 769.21 790.513 773.78C784.156 778.35 779.399 784.6 776.251 792.53C773.862 799.25 772.668 811.19 772.668 828.37V888C772.668 896.92 770.684 903.72 766.717 908.4C762.749 913.08 757.232 915.42 750.165 915.42C735.498 915.42 728.155 906.28 728.155 888V692.43C728.155 683.29 730.08 676.43 733.939 671.86C737.798 667.29 743.207 665.01 750.155 665.01C757.103 665.01 762.739 667.32 766.707 671.95C770.674 676.58 772.658 683.41 772.658 692.43L772.648 692.42Z" fill="#09539A"/>
<path d="M1049.82 832.49H960.264C960.372 843.02 962.474 852.31 966.551 860.36C970.637 868.4 976.055 874.46 982.816 878.54C989.577 882.62 997.038 884.66 1005.2 884.66C1010.68 884.66 1015.68 884.01 1020.21 882.71C1024.73 881.41 1029.13 879.37 1033.38 876.59C1037.62 873.81 1041.54 870.84 1045.12 867.67C1048.7 864.5 1053.35 860.19 1059.04 854.76C1061.39 852.72 1064.75 851.7 1069.1 851.7C1073.8 851.7 1077.6 853 1080.5 855.61C1083.4 858.22 1084.86 861.9 1084.86 866.66C1084.86 870.85 1083.24 875.75 1079.99 881.36C1076.75 886.97 1071.86 892.35 1065.32 897.5C1058.77 902.66 1050.56 906.93 1040.66 910.33C1030.76 913.73 1019.38 915.43 1006.53 915.43C977.121 915.43 954.263 906.93 937.938 889.94C921.613 872.95 913.451 849.9 913.451 820.78C913.451 807.07 915.465 794.36 919.491 782.63C923.518 770.91 929.391 760.85 937.099 752.47C944.817 744.09 954.312 737.66 965.613 733.18C976.904 728.71 989.429 726.47 1003.18 726.47C1021.06 726.47 1036.41 730.29 1049.21 737.94C1062.01 745.59 1071.59 755.47 1077.97 767.59C1084.35 779.71 1087.53 792.06 1087.53 804.63C1087.53 816.3 1084.24 823.86 1077.65 827.31C1071.04 830.77 1061.76 832.49 1049.8 832.49H1049.82ZM960.264 806.15H1043.28C1042.16 790.29 1037.94 778.43 1030.62 770.55C1023.29 762.68 1013.65 758.74 1001.69 758.74C989.725 758.74 980.921 762.73 973.598 770.72C966.274 778.71 961.833 790.51 960.264 806.15Z" fill="#09539A"/>
<path d="M1170.99 848.91V887.39C1170.99 896.73 1168.82 903.74 1164.5 908.41C1160.17 913.08 1154.67 915.41 1148.01 915.41C1141.34 915.41 1136.06 913.04 1131.85 908.32C1127.62 903.59 1125.52 896.62 1125.52 887.39V759.11C1125.52 738.41 1132.91 728.06 1147.68 728.06C1155.23 728.06 1160.67 730.48 1164 735.32C1167.34 740.16 1169.17 747.31 1169.5 756.76C1174.94 747.31 1180.53 740.16 1186.24 735.32C1191.96 730.49 1199.6 728.06 1209.15 728.06C1218.7 728.06 1227.97 730.48 1236.97 735.32C1245.96 740.16 1250.46 746.57 1250.46 754.56C1250.46 760.19 1248.55 764.83 1244.72 768.48C1240.89 772.14 1236.75 773.96 1232.3 773.96C1230.64 773.96 1226.61 772.92 1220.22 770.84C1213.84 768.76 1208.2 767.72 1203.32 767.72C1196.65 767.72 1191.21 769.49 1186.99 773.04C1182.77 776.58 1179.5 781.84 1177.16 788.82C1174.83 795.8 1173.21 804.1 1172.33 813.72C1171.45 823.34 1171 835.07 1171 848.91H1170.99Z" fill="#09539A"/>
<path d="M1430.39 818.32V884.2C1430.39 894.61 1428.06 902.41 1423.4 907.61C1418.74 912.81 1412.6 915.41 1404.96 915.41C1397.32 915.41 1391.55 912.81 1386.95 907.61C1382.36 902.41 1380.06 894.6 1380.06 884.2V805.26C1380.06 792.8 1379.63 783.12 1378.8 776.22C1377.96 769.32 1375.69 763.67 1371.99 759.25C1368.29 754.84 1362.44 752.63 1354.44 752.63C1338.44 752.63 1327.9 758.2 1322.83 769.33C1317.76 780.46 1315.22 796.43 1315.22 817.24V884.21C1315.22 894.49 1312.92 902.27 1308.32 907.53C1303.72 912.79 1297.66 915.43 1290.14 915.43C1282.62 915.43 1276.68 912.8 1271.96 907.53C1267.24 902.27 1264.88 894.49 1264.88 884.21V742.47C1264.88 733.15 1267.01 726.08 1271.24 721.23C1275.47 716.39 1281.06 713.97 1287.99 713.97C1294.92 713.97 1300.26 716.24 1304.74 720.78C1309.22 725.32 1311.46 731.58 1311.46 739.56V744.28C1319.94 734 1329.01 726.44 1338.68 721.6C1348.35 716.76 1359.1 714.34 1370.93 714.34C1382.75 714.34 1393.79 716.82 1402.63 721.78C1411.46 726.74 1418.74 734.25 1424.48 744.29C1432.72 734.13 1441.55 726.6 1450.99 721.7C1460.42 716.8 1470.87 714.35 1482.34 714.35C1495.71 714.35 1507.23 717.01 1516.9 722.34C1526.57 727.67 1533.8 735.29 1538.57 745.21C1542.75 754.16 1544.84 768.26 1544.84 787.5V884.23C1544.84 894.64 1542.51 902.44 1537.85 907.64C1533.2 912.84 1527.05 915.44 1519.41 915.44C1511.77 915.44 1505.94 912.81 1501.23 907.54C1496.51 902.28 1494.15 894.5 1494.15 884.22V800.92C1494.15 790.28 1493.7 781.74 1492.81 775.33C1491.91 768.92 1489.49 763.53 1485.55 759.18C1481.62 754.83 1475.64 752.65 1467.64 752.65C1461.19 752.65 1455.08 754.59 1449.28 758.46C1443.49 762.33 1438.98 767.53 1435.76 774.07C1432.18 782.42 1430.39 797.18 1430.39 818.35V818.32Z" fill="#09539A"/>
<path d="M1544.99 865.54L1544.84 976.49C1544.84 992.79 1533.58 1006.26 1518.1 1007.29C1517.46 1007.34 1516.81 1007.36 1516.16 1007.36H38V313.11C38 304.95 41.1978 297.55 46.3696 292.19C51.5414 286.83 58.6772 283.52 66.5632 283.52C82.3351 283.52 95.1264 296.77 95.1264 313.11V945.86H1494.08V865.44C1494.08 858.04 1496.98 851.33 1501.66 846.48C1506.34 841.63 1512.82 838.63 1519.97 838.63C1534.26 838.63 1545 850.74 1545 865.55L1544.99 865.54Z" fill="#09539A"/>
<path d="M874.307 276.09C874.307 281.59 872.797 287.16 869.619 292.26C859.976 307.77 838.628 313.07 821.928 304.13L456.154 108.06L90.3692 304.13C73.6597 313.08 52.3113 307.77 42.6784 292.26C39.5102 287.16 37.9902 281.59 37.9902 276.09C37.9902 264.89 44.2575 254 55.4499 247.99L437.924 42.9802C443.668 39.9002 449.965 38.5102 456.154 38.6502C462.342 38.5202 468.629 39.9102 474.373 42.9802L856.847 247.99C868.05 253.99 874.317 264.89 874.317 276.09H874.307Z" fill="#DD2131"/>
</svg>
